<svg width="13" height="13" viewBox="0 0 13 13" fill="none" xmlns="http://www.w3.org/2000/svg">
<path fill-rule="evenodd" clip-rule="evenodd" d="M4.1089 0.0688477H9.43667C11.3091 0.0688477 12.8271 1.58678 12.8271 3.45925V8.78701C12.8271 10.6595 11.3091 12.1774 9.43667 12.1774H4.1089C2.23644 12.1774 0.718506 10.6595 0.718506 8.78701V3.45925C0.718506 1.58678 2.23644 0.0688477 4.1089 0.0688477ZM6.77287 3.21713C5.1679 3.21713 3.86681 4.51821 3.86681 6.12318C3.86681 7.72815 5.1679 9.02924 6.77287 9.02924C8.37784 9.02924 9.67892 7.72815 9.67892 6.12318C9.67892 4.51821 8.37784 3.21713 6.77287 3.21713ZM6.77287 8.06055C5.70289 8.06055 4.8355 7.19316 4.8355 6.12318C4.8355 5.0532 5.70289 4.18581 6.77287 4.18581C7.84285 4.18581 8.71024 5.0532 8.71024 6.12318C8.70692 7.19178 7.84147 8.05723 6.77287 8.06055ZM11.8585 8.78707C11.8585 9.42934 11.6033 10.0453 11.1492 10.4995C10.695 10.9536 10.079 11.2088 9.43675 11.2088H4.10899C2.77151 11.2088 1.68727 10.1245 1.68727 8.78707V3.4593C1.68727 2.12182 2.77151 1.03758 4.10899 1.03758H9.43675C10.079 1.03758 10.695 1.29273 11.1492 1.74689C11.6033 2.20105 11.8585 2.81702 11.8585 3.4593V8.78707ZM9.9211 3.70147C10.3223 3.70147 10.6476 3.3762 10.6476 2.97495C10.6476 2.57371 10.3223 2.24844 9.9211 2.24844C9.51985 2.24844 9.19458 2.57371 9.19458 2.97495C9.19458 3.3762 9.51985 3.70147 9.9211 3.70147Z" fill="#4C4C4C"/>
</svg>
