<svg width="14" height="14" viewBox="0 0 14 14" fill="none" xmlns="http://www.w3.org/2000/svg">
<path fill-rule="evenodd" clip-rule="evenodd" d="M5.36111 5.16581H7.75958V6.36052C8.10507 5.6734 8.9911 5.05602 10.3221 5.05602C12.8736 5.05602 13.4793 6.42381 13.4793 8.93335V13.5811H10.8962V9.50487C10.8962 8.07574 10.5507 7.26979 9.67112 7.26979C8.45122 7.26979 7.94427 8.13838 7.94427 9.50422V13.5811H5.36111V5.16581ZM0.931649 13.4713H3.51481V5.05602H0.931649V13.4713ZM3.88477 2.31205C3.88497 2.7494 3.70981 3.16858 3.39849 3.47576C3.08619 3.78614 2.66346 3.95988 2.22316 3.95881C1.78363 3.95852 1.36187 3.78522 1.04911 3.47641C0.738968 3.16822 0.564232 2.74927 0.563477 2.31205C0.563477 1.87485 0.73784 1.45638 1.04976 1.14769C1.36224 0.838457 1.78417 0.66509 2.2238 0.665283C2.66423 0.665283 3.08658 0.839001 3.39849 1.14769C3.70977 1.45638 3.88477 1.87485 3.88477 2.31205Z" fill="#4C4C4C"/>
</svg>
