<svg width="150" height="27" viewBox="0 0 150 27" fill="none" xmlns="http://www.w3.org/2000/svg">
<g clip-path="url(#clip0_1_2)">
<path fill-rule="evenodd" clip-rule="evenodd" d="M38.3576 19.2128L39.2903 19.761C38.474 20.7828 36.9584 22.1036 34.0728 22.1036C30.6043 22.1036 27.7479 19.462 27.7479 16.1225C27.7479 12.7831 30.6043 10.1416 34.0728 10.1416C36.9584 10.1416 38.5034 11.3377 39.2903 12.3345L38.3576 12.8829C37.687 12.0854 36.4337 11.1384 34.0728 11.1384C31.1873 11.1384 28.9138 13.3813 28.9138 16.1225C28.9138 18.8638 31.1873 21.1068 34.0728 21.1068C36.4337 21.1068 37.6579 20.0351 38.3576 19.2128Z" fill="white"/>
<path fill-rule="evenodd" clip-rule="evenodd" d="M34.0728 9.78321C36.6491 9.78321 38.4422 10.6819 39.5716 12.1125L39.8264 12.4351L39.472 12.6435L38.5392 13.1919L38.2781 13.3454L38.0832 13.1136C37.2393 12.1098 35.9781 11.4969 34.0728 11.4969C31.3996 11.4969 29.2722 13.5654 29.2722 16.1225C29.2722 18.6797 31.3996 20.7484 34.0728 20.7484C35.9365 20.7484 37.1248 20.1087 38.0846 18.9805L38.2797 18.7513L38.5392 18.9038L39.4719 19.452L39.8285 19.6616L39.5703 19.9847C38.339 21.526 36.6186 22.462 34.0728 22.462C30.3894 22.462 27.3895 19.6446 27.3895 16.1225C27.3895 12.6005 30.3894 9.78321 34.0728 9.78321ZM34.0728 10.5C30.7756 10.5 28.1064 13.0068 28.1064 16.1225C28.1064 19.2383 30.7756 21.7452 34.0728 21.7452C36.1759 21.7452 37.6245 21.0611 38.6989 19.8998L38.7408 19.8538L38.4298 19.671L38.393 19.7106C37.3589 20.808 36.0559 21.4454 34.162 21.4648L34.0728 21.4652C31.0081 21.4652 28.5554 19.0802 28.5554 16.1225C28.5554 13.1649 31.0081 10.78 34.0728 10.78C36.0405 10.78 37.4394 11.3906 38.4118 12.4068L38.429 12.425L38.7393 12.2425L38.7227 12.2245C37.7328 11.1727 36.2551 10.5189 34.1641 10.5004L34.0728 10.5Z" fill="white"/>
<path fill-rule="evenodd" clip-rule="evenodd" d="M42.9045 16.1226C42.9045 18.8639 45.2363 21.1068 48.1511 21.1068C51.0659 21.1068 53.3974 18.8639 53.3974 16.1226C53.3974 13.3813 51.0659 11.1383 48.1511 11.1383C45.2363 11.1383 42.9045 13.3813 42.9045 16.1226ZM41.7386 16.1226C41.7386 12.7832 44.6533 10.1415 48.1511 10.1415C51.6487 10.1415 54.5634 12.7832 54.5634 16.1226C54.5634 19.462 51.6487 22.1037 48.1511 22.1037C44.6533 22.1037 41.7386 19.462 41.7386 16.1226Z" fill="white"/>
<path fill-rule="evenodd" clip-rule="evenodd" d="M48.1511 9.78311C51.8693 9.78311 54.9218 12.6052 54.9218 16.1226C54.9218 19.64 51.8693 22.4621 48.1511 22.4621C44.4328 22.4621 41.3802 19.6401 41.3802 16.1226C41.3802 12.6051 44.4328 9.78311 48.1511 9.78311ZM48.1511 10.4999C44.8166 10.4999 42.0971 13.0141 42.0971 16.1226C42.0971 19.2311 44.8166 21.7452 48.1511 21.7452C51.4854 21.7452 54.205 19.231 54.205 16.1226C54.205 13.0142 51.4854 10.4999 48.1511 10.4999ZM48.1511 10.7799C51.25 10.7799 53.7559 13.1698 53.7559 16.1226C53.7559 19.0754 51.25 21.4653 48.1511 21.4653C45.0522 21.4653 42.5461 19.0753 42.5461 16.1226C42.5461 13.1699 45.0522 10.7799 48.1511 10.7799ZM48.1511 11.4968C45.4407 11.4968 43.2629 13.5736 43.2629 16.1226C43.2629 18.6716 45.4407 20.7484 48.1511 20.7484C50.8615 20.7484 53.039 18.6717 53.039 16.1226C53.039 13.5735 50.8615 11.4968 48.1511 11.4968Z" fill="white"/>
<path fill-rule="evenodd" clip-rule="evenodd" d="M67.0675 12.2848C67.9128 13.7551 66.7469 10.7645 71.5854 10.1416C74.2378 9.79264 76.4822 12.1602 76.4822 14.8018V21.6052L76.5113 22.1285H75.3744L75.3453 21.6302L75.3162 14.8018C75.3162 12.8081 73.6839 11.1384 71.5854 11.1384C69.4866 11.1384 67.8544 12.8081 67.8544 14.8018V15.3002V21.6052L67.8835 22.1285H66.7469L66.7178 21.6302C66.7178 19.5118 66.6884 17.4185 66.6884 15.3002V14.8018C66.6884 12.8081 65.0564 11.1384 62.9576 11.1384C60.859 11.1384 59.2268 12.8081 59.2268 14.8018V15.3002V21.6052V22.1036H58.061V21.6052V15.3002V14.8018V10.6399V10.1416H59.2268V10.6399V11.7615C60.1303 10.7645 61.4712 10.1416 62.9576 10.1416C64.8231 10.1416 66.2514 10.8144 67.0675 12.2848Z" fill="white"/>
<path fill-rule="evenodd" clip-rule="evenodd" d="M71.5386 9.78624C74.3447 9.41708 76.8406 11.8734 76.8406 14.8018V21.5956L76.8691 22.1086L76.8902 22.4869H75.0363L75.0166 22.1494L74.9875 21.6511L74.9869 21.6317L74.9578 14.8018C74.9578 12.9832 73.4631 11.4968 71.5854 11.4968C69.7076 11.4968 68.2129 12.9832 68.2129 14.8018V21.5956L68.2414 22.1086L68.2624 22.4869H66.4088L66.3891 22.1494L66.36 21.6511L66.3594 21.6302C66.3594 21.6132 66.3594 21.5964 66.3594 21.5795L66.3593 21.3799C66.3593 21.3635 66.3593 21.347 66.3593 21.3306L66.3591 21.2322C66.3581 20.5118 66.3541 19.8034 66.3447 18.4677C66.3367 17.3129 66.3325 16.6263 66.3309 15.9954L66.3307 15.8962C66.3305 15.8303 66.3304 15.7648 66.3303 15.6991L66.3302 15.6005C66.3302 15.5841 66.3302 15.5676 66.3301 15.551L66.33 14.8018C66.33 12.9831 64.8354 11.4968 62.9576 11.4968C61.08 11.4968 59.5853 12.9832 59.5853 14.8018V22.462H57.7026V9.78318H59.5853V10.9378L59.6213 10.9096C60.5293 10.205 61.6703 9.80062 62.8787 9.78373L62.9576 9.78318C64.9984 9.78318 66.5178 10.5557 67.3809 12.1108L67.3637 12.0806L67.3779 12.0547L67.41 11.9973C67.5993 11.665 67.8287 11.3704 68.1469 11.0899C68.885 10.4395 69.9804 9.98685 71.5386 9.78624ZM68.0334 12.3511C68.0388 12.3447 67.7921 12.8228 67.7031 12.9112C67.5083 13.1046 67.2429 13.0809 67.0553 12.8967C66.9679 12.8108 66.8847 12.6859 66.7568 12.4634L66.7541 12.4587C66.0264 11.1476 64.7529 10.5 62.9576 10.5C61.6061 10.5 60.3505 11.0553 59.4924 12.0022L58.8684 12.6907V10.5H58.4194V21.7451H58.8684V14.8018C58.8684 12.6085 60.6488 10.8162 62.8896 10.7805L62.9576 10.78C65.2304 10.78 67.0469 12.5863 67.0469 14.8018L67.047 15.5504C67.047 15.5669 67.047 15.5834 67.047 15.5998L67.0471 15.6982C67.0472 15.7473 67.0473 15.7963 67.0474 15.8456L67.0476 15.9442C67.0492 16.5877 67.0533 17.2788 67.0615 18.4627L67.0622 18.5529C67.07 19.6833 67.074 20.3564 67.0755 20.9846L67.0757 21.0835C67.0758 21.1328 67.0759 21.182 67.076 21.2313L67.0761 21.3298C67.0761 21.3463 67.0761 21.3628 67.0761 21.3793L67.0762 21.5794L67.0762 21.6211L67.085 21.7701H67.5045L67.4966 21.6252L67.496 21.6052V14.8018C67.496 12.5864 69.3126 10.78 71.5854 10.78C73.8581 10.78 75.6746 12.5864 75.6746 14.8003L75.7036 21.6183L75.7124 21.7701H76.1322L76.1243 21.6252L76.1238 21.6052V14.8018C76.1238 12.2882 73.9886 10.1869 71.6311 10.4971C70.2066 10.6805 69.2447 11.0779 68.6209 11.6277C68.3664 11.852 68.1851 12.0848 68.0329 12.3521L68.0334 12.3511Z" fill="white"/>
<path fill-rule="evenodd" clip-rule="evenodd" d="M81.1746 15.6242H91.6385C91.6385 13.3812 89.3069 11.1384 86.3921 11.1384C83.623 11.1384 81.437 13.1071 81.1746 15.6242ZM90.9973 19.1131L91.9301 19.7112C91.0557 20.7579 89.4233 22.1285 86.3921 22.1036C82.8652 22.1036 79.9797 19.4621 79.9797 16.1226C79.9797 12.7832 82.8652 10.1416 86.3921 10.1416C89.8897 10.1416 92.8044 12.7832 92.8044 16.1226V16.621H92.2215H81.1746C81.437 19.1381 83.623 21.1068 86.3921 21.1068C88.8987 21.1317 90.2395 20.0103 90.9973 19.1131Z" fill="white"/>
<path fill-rule="evenodd" clip-rule="evenodd" d="M86.3922 9.78317C90.1103 9.78317 93.1629 12.6052 93.1629 16.1226V16.9794L81.5903 16.9793L81.5948 17.0034C82.0225 19.1367 83.9518 20.7145 86.3192 20.7478L86.3957 20.7484C88.3955 20.7683 89.7133 20.0779 90.7235 18.8818L90.9263 18.6418L91.1908 18.8114L92.1235 19.4095L92.4658 19.629L92.2051 19.941C90.8835 21.5231 89.0528 22.4839 86.3922 22.462C82.6545 22.462 79.6213 19.6491 79.6213 16.1226C79.6213 12.5962 82.6546 9.78317 86.3922 9.78317ZM86.3922 10.5C83.0389 10.5 80.3381 13.0046 80.3381 16.1226C80.3381 19.2406 83.0388 21.7452 86.3951 21.7452C88.6471 21.7637 90.2139 21.0315 91.3793 19.7927L91.3844 19.7871L91.0623 19.5805L91.0348 19.6103C89.9392 20.7805 88.509 21.4658 86.482 21.4656L86.3922 21.4652C83.478 21.4652 81.1034 19.395 80.8182 16.6581L80.7769 16.2626L92.446 16.2624V16.1226C92.446 13.0453 89.7805 10.5503 86.492 10.5007L86.3922 10.5ZM86.3922 10.78C89.3988 10.78 91.9969 13.0869 91.9969 15.6242V15.9826H80.7769L80.8182 15.587C81.1034 12.8502 83.478 10.78 86.3922 10.78ZM86.3922 11.4968C83.9933 11.4968 82.027 13.0855 81.5948 15.2418L81.5903 15.2656H91.2586L91.2561 15.244C91.0102 13.2905 88.9084 11.5346 86.4709 11.4974L86.3922 11.4968Z" fill="white"/>
<path fill-rule="evenodd" clip-rule="evenodd" d="M97.4678 12.4094C98.6338 10.9141 100.616 10.1416 102.948 10.1416H103.531V11.1384H102.948C99.7705 11.1384 97.497 12.8829 97.4678 15.9979V16.1225V16.621V21.6053V22.1036H96.3019V21.6053V16.621V16.1225V15.9979V10.6399V10.1416H97.4678V10.6399V12.4094Z" fill="white"/>
<path fill-rule="evenodd" clip-rule="evenodd" d="M97.8262 9.78319L97.8261 11.5009L97.8274 11.4999C99.0522 10.3951 100.811 9.80057 102.857 9.78357L102.948 9.78319H103.889V11.4968H102.948C99.8435 11.4968 97.8526 13.1926 97.8262 15.9979V22.462H95.9435V9.78319H97.8262ZM97.1093 10.5H96.6604V21.7452H97.1093L97.1094 16.1225L97.1094 15.9946C97.1397 12.7667 99.4722 10.78 102.948 10.78L103.172 10.7799V10.5H102.948C100.706 10.5 98.8712 11.2354 97.7932 12.5758L97.7505 12.6298L97.1094 13.4519L97.1093 10.5Z" fill="white"/>
<path fill-rule="evenodd" clip-rule="evenodd" d="M115.597 19.2128L116.53 19.761C115.714 20.7828 114.198 22.1036 111.313 22.1036C107.844 22.1036 104.988 19.462 104.988 16.1225C104.988 12.7831 107.844 10.1416 111.313 10.1416C114.198 10.1416 115.743 11.3377 116.53 12.3345L115.597 12.8829C114.927 12.0854 113.674 11.1384 111.313 11.1384C108.427 11.1384 106.154 13.3813 106.154 16.1225C106.154 18.8638 108.427 21.1068 111.313 21.1068C113.674 21.1068 114.898 20.0351 115.597 19.2128Z" fill="white"/>
<path fill-rule="evenodd" clip-rule="evenodd" d="M111.313 9.78321C113.889 9.78321 115.682 10.6819 116.812 12.1125L117.066 12.4351L116.712 12.6435L115.779 13.1919L115.518 13.3454L115.323 13.1136C114.479 12.1098 113.218 11.4969 111.313 11.4969C108.64 11.4969 106.512 13.5654 106.512 16.1225C106.512 18.6797 108.64 20.7484 111.313 20.7484C113.176 20.7484 114.365 20.1087 115.325 18.9805L115.52 18.7513L115.779 18.9038L116.712 19.452L117.068 19.6616L116.81 19.9847C115.579 21.5259 113.859 22.462 111.313 22.462C107.629 22.462 104.629 19.6446 104.629 16.1225C104.629 12.6005 107.629 9.78321 111.313 9.78321ZM111.313 10.5C108.016 10.5 105.346 13.0068 105.346 16.1225C105.346 19.2383 108.016 21.7452 111.313 21.7452C113.416 21.7452 114.865 21.061 115.939 19.8998L115.981 19.8538L115.67 19.671L115.633 19.7106C114.599 20.808 113.296 21.4454 111.402 21.4648L111.313 21.4652C108.248 21.4652 105.795 19.0802 105.795 16.1225C105.795 13.1649 108.248 10.78 111.313 10.78C113.28 10.78 114.679 11.3906 115.652 12.4068L115.669 12.425L115.979 12.2425L115.963 12.2245C114.973 11.1727 113.495 10.5189 111.404 10.5004L111.313 10.5Z" fill="white"/>
<path fill-rule="evenodd" clip-rule="evenodd" d="M120.144 10.64V10.1415H121.364V10.64V21.6051V22.1036H120.144V21.6051V10.64ZM120.754 8.12291H120.144V7.12609H120.754H120.785H121.394V8.12291H120.785H120.754Z" fill="white"/>
<path fill-rule="evenodd" clip-rule="evenodd" d="M121.669 9.78308V22.462H119.786V9.78308H121.669ZM120.952 10.4998H120.503V21.7452H120.952V10.4998ZM121.698 6.76767V8.48132H119.786V6.76767H120.144H121.698ZM120.981 7.4845H120.503V7.76435H120.981V7.4845Z" fill="white"/>
<path fill-rule="evenodd" clip-rule="evenodd" d="M149.146 13.3564H147.98C147.98 12.0605 146.173 11.1384 144.22 11.1384C142.267 11.1384 140.46 12.0605 140.46 13.3564C140.46 15.7986 149.67 15.3999 149.641 18.8888C149.641 20.5585 147.397 22.1037 144.22 22.1037C141.043 22.1037 138.798 20.5585 138.798 18.8888H139.964C139.964 20.2097 142.034 21.1069 144.22 21.1069C146.406 21.1069 148.475 20.2097 148.475 18.8888C148.475 16.4217 139.323 16.8703 139.294 13.3564C139.294 11.6618 141.393 10.1415 144.22 10.1415C147.047 10.1415 149.146 11.6618 149.146 13.3564Z" fill="white"/>
<path fill-rule="evenodd" clip-rule="evenodd" d="M144.22 9.78312C147.144 9.78312 149.504 11.3743 149.504 13.3564V13.7148H147.622V13.3564C147.622 12.3621 146.087 11.4968 144.22 11.4968C142.353 11.4968 140.818 12.3622 140.818 13.3564C140.818 13.9779 141.734 14.4385 144.093 15.0915C144.148 15.1068 144.381 15.1706 144.619 15.2363L144.704 15.2594C144.885 15.3094 145.059 15.3572 145.147 15.3818C146.68 15.8094 147.616 16.1393 148.393 16.5823C149.438 17.1788 150.008 17.9276 150 18.8888C150 20.8774 147.448 22.4621 144.22 22.4621C140.992 22.4621 138.44 20.8774 138.44 18.8888V18.5304H140.323V18.8888C140.323 19.8816 142.083 20.7484 144.22 20.7484C146.357 20.7484 148.117 19.8816 148.117 18.8888C148.117 18.255 147.205 17.7957 144.839 17.1448C144.789 17.1312 144.547 17.0651 144.301 16.9979L144.219 16.9756C144.043 16.9273 143.876 16.8815 143.789 16.8575C142.268 16.4354 141.334 16.1073 140.559 15.6653C139.518 15.0714 138.944 14.324 138.936 13.3564C138.936 11.3743 141.296 9.78312 144.22 9.78312ZM144.22 10.5C141.646 10.5 139.652 11.8437 139.652 13.3534C139.663 14.5946 140.941 15.3232 143.981 16.1667C144.199 16.2272 144.937 16.4284 145.029 16.4536C146.283 16.7986 146.989 17.0312 147.577 17.3274C148.387 17.735 148.834 18.2317 148.834 18.8888C148.834 20.4157 146.703 21.4653 144.22 21.4653C141.961 21.4653 139.992 20.5961 139.657 19.2891L139.646 19.2473H139.198L139.209 19.29C139.551 20.6092 141.552 21.7206 144.134 21.7449L144.22 21.7453C147.102 21.7453 149.283 20.3911 149.283 18.8859C149.293 17.6555 148.015 16.9261 144.954 16.0723C144.86 16.046 144.667 15.9928 144.471 15.9388L144.387 15.9157C144.163 15.8544 143.954 15.7969 143.901 15.7824C142.652 15.4363 141.944 15.2024 141.357 14.9068C140.548 14.5001 140.102 14.0074 140.102 13.3564C140.102 11.856 142.009 10.7799 144.22 10.7799C146.232 10.7799 147.993 11.671 148.293 12.9621L148.301 12.9978H148.75C148.468 11.6521 146.629 10.5247 144.297 10.5004L144.22 10.5Z" fill="white"/>
<path fill-rule="evenodd" clip-rule="evenodd" d="M16.8933 9.81261H19.8551C19.9433 9.81261 20.0284 9.8367 20.103 9.87957C20.1021 9.89247 20.1011 9.90523 20.1011 9.91842V15.5931V17.9724V21.0321V21.4377V21.764V23.3564C20.1011 23.6872 20.4221 23.9232 20.7379 23.8243L21.2 23.6796C22.4225 23.1966 23.8809 22.6758 25.6122 22.1329C25.6429 22.0684 25.6607 21.9971 25.6607 21.9224V21.4377V21.0321V9.91842C25.6607 9.89591 25.6592 9.87369 25.6568 9.85175V9.81261H25.6607V1.57124C25.6607 1.29598 25.4376 1.07291 25.1625 1.07291H22.6127C22.3988 1.07291 22.2093 1.20968 22.1411 1.41239C21.359 3.73965 19.8181 5.49287 17.45 5.9168C17.2564 5.95149 17.0572 5.9773 16.8524 5.99378C16.5941 6.01457 16.395 6.23062 16.395 6.48983V9.31428C16.395 9.58954 16.6182 9.81261 16.8933 9.81261Z" fill="#CC4236"/>
<path fill-rule="evenodd" clip-rule="evenodd" d="M20.7516 0.184368C20.6402 0.0705359 20.4874 0 20.3183 0H8.11922H7.6606H1.09388C0.489737 0 0 0.44386 0 0.991086V4.56089C0 4.75529 0.173902 4.91285 0.388234 4.91285H7.73701V7.66146C7.73701 7.67221 7.735 7.68138 7.73414 7.69156V23.8725C7.73414 24.021 7.83149 24.1515 7.97342 24.1955C9.79574 24.7604 11.4419 25.4419 12.7458 26.0472C12.97 26.1515 13.226 25.9877 13.226 25.7404V5.68602C13.226 5.64559 13.2183 5.60588 13.2098 5.56645C13.1624 5.34754 13.2478 5.09292 13.4669 5.00561C13.5171 4.98568 13.5743 4.9745 13.6384 4.9745H15.742C15.7497 4.97364 15.7552 4.97306 15.7552 4.97306C20.3334 4.52648 20.8029 0.990369 20.8415 0.590236C20.8426 0.568014 20.8436 0.546366 20.8446 0.524288V0.426513C20.8446 0.336479 20.8135 0.247592 20.7516 0.184368Z" fill="#CC4236"/>
<path fill-rule="evenodd" clip-rule="evenodd" d="M128.472 14.7841C128.391 14.8045 128.311 14.8253 128.234 14.8469C127.856 16.1011 127.573 17.7368 127.536 19.8523C127.536 19.8523 127.702 17.0717 128.472 14.7841Z" fill="white"/>
<path fill-rule="evenodd" clip-rule="evenodd" d="M126.027 19.8203C126.069 19.8296 126.112 19.8431 126.155 19.8588C126.12 19.8148 126.085 19.7714 126.05 19.7257C126.05 19.7257 128.425 20.8225 130.168 20.4429C130.168 20.4429 127.119 20.3969 125.642 18.9601C125.666 19.0157 125.689 19.0713 125.712 19.1271C125.8 19.3439 125.896 19.5971 126.027 19.8203Z" fill="white"/>
<path fill-rule="evenodd" clip-rule="evenodd" d="M131.292 11.8358C131.292 11.8358 133.727 11.7936 133.85 18.9239C133.85 18.9239 134.016 12.7324 131.952 11.5247C131.952 11.5247 131.976 11.5272 132.019 11.535C131.601 11.2531 130.943 11.1872 130.349 11.1933C129.972 11.4989 129.002 12.4537 128.305 14.6179C128.387 14.598 128.469 14.5789 128.55 14.5616C129.115 12.9939 129.979 11.7168 131.292 11.8358Z" fill="white"/>
<path fill-rule="evenodd" clip-rule="evenodd" d="M128.234 14.8469C128.257 14.7691 128.281 14.6928 128.305 14.6178C127.247 14.874 126.094 15.3413 125.004 16.1623C124.962 16.4968 124.968 16.8423 125.03 17.1984C125.292 16.5923 126.059 15.4537 128.234 14.8469Z" fill="white"/>
<path fill-rule="evenodd" clip-rule="evenodd" d="M132.241 14.4516C132.241 14.4516 130.606 14.1192 128.55 14.5616C128.524 14.6353 128.498 14.7092 128.472 14.7841C129.443 14.5421 130.676 14.4035 132.241 14.4516Z" fill="white"/>
<path fill-rule="evenodd" clip-rule="evenodd" d="M134.156 14.558C134.156 14.9323 133.859 15.2359 133.493 15.2359C133.127 15.2359 132.83 14.9323 132.83 14.558C132.83 14.1835 133.127 13.88 133.493 13.88C133.859 13.88 134.156 14.1835 134.156 14.558Z" fill="white"/>
<path fill-rule="evenodd" clip-rule="evenodd" d="M129.687 12.8677C129.687 13.2309 129.399 13.5252 129.044 13.5252C128.689 13.5252 128.401 13.2309 128.401 12.8677C128.401 12.5046 128.689 12.2103 129.044 12.2103C129.399 12.2103 129.687 12.5046 129.687 12.8677Z" fill="white"/>
<path fill-rule="evenodd" clip-rule="evenodd" d="M128.401 17.5803C128.401 17.9717 128.09 18.289 127.708 18.289C127.325 18.289 127.014 17.9717 127.014 17.5803C127.014 17.1889 127.325 16.8715 127.708 16.8715C128.09 16.8715 128.401 17.1889 128.401 17.5803Z" fill="white"/>
<path fill-rule="evenodd" clip-rule="evenodd" d="M131.737 20.4429C131.737 20.8108 131.446 21.1091 131.086 21.1091C130.726 21.1091 130.434 20.8108 130.434 20.4429C130.434 20.075 130.726 19.7767 131.086 19.7767C131.446 19.7767 131.737 20.075 131.737 20.4429Z" fill="white"/>
<path fill-rule="evenodd" clip-rule="evenodd" d="M134.225 20.1057C134.225 20.385 134.003 20.6114 133.73 20.6114C133.457 20.6114 133.235 20.385 133.235 20.1057C133.235 19.8265 133.457 19.6 133.73 19.6C134.003 19.6 134.225 19.8265 134.225 20.1057Z" fill="white"/>
<path fill-rule="evenodd" clip-rule="evenodd" d="M132.076 21.1091C132.076 21.1091 125.679 16.8173 126.628 14.0313C126.628 14.0313 127.165 12.3034 131.086 13.5252C131.086 13.5252 133.974 14.4714 135.047 15.3475C135.047 15.3475 128.485 11.0377 126.257 13.5252C126.257 13.5252 123.904 15.6575 132.076 21.1091Z" fill="white"/>
<path fill-rule="evenodd" clip-rule="evenodd" d="M124.96 16.3254C124.96 19.1299 127.346 21.4242 130.327 21.4242C133.309 21.4242 135.695 19.1299 135.695 16.3254C135.695 13.521 133.309 11.2267 130.327 11.2267C127.346 11.2267 124.96 13.521 124.96 16.3254ZM123.767 16.3254C123.767 12.9093 126.749 10.2068 130.327 10.2068C133.906 10.2068 136.888 12.9093 136.888 16.3254C136.888 19.7417 133.906 22.4441 130.327 22.4441C126.749 22.4441 123.767 19.7417 123.767 16.3254Z" fill="white"/>
</g>
<defs>
<clipPath id="clip0_1_2">
<rect width="150" height="27" fill="white"/>
</clipPath>
</defs>
</svg>
