<svg width="131" height="32" viewBox="0 0 131 32" fill="none" xmlns="http://www.w3.org/2000/svg">
    <path
        d="M17.6687 5.86803L21.406 5.91679C22.9094 5.93683 24.3586 5.38804 25.4293 4.3932C26.5001 3.39837 27.1031 2.0405 27.1034 0.62337C27.1004 0.278249 26.8027 -1.19177e-05 26.4365 0H0.966199C0.433303 -9.18137e-07 0.00101892 0.406663 0 0.908935V5.31954C0.00304234 5.65215 0.28999 5.92028 0.642901 5.92027H10.1552V28.5879C10.1549 28.9891 10.4044 29.3532 10.7926 29.5178L16.5436 31.9555C16.7099 32.026 16.9027 32.012 17.0556 31.9183C17.2084 31.8247 17.3002 31.6642 17.2992 31.4923L17.0941 6.40608C17.0926 6.26234 17.1528 6.12412 17.261 6.02281C17.3692 5.92149 17.5162 5.86568 17.6687 5.86803Z"
        fill="#DB3A28" />
    <path
        d="M32.2278 0.888672H28.7056C28.5905 0.888672 28.4972 0.979097 28.4972 1.09064C28.4972 4.29179 25.8202 6.88684 22.518 6.88684H21.1098C21.0217 6.88541 20.9368 6.91871 20.8745 6.9791C20.8122 7.03949 20.7779 7.12181 20.7793 7.20721V10.9889C20.7793 11.2774 21.0206 11.5113 21.3182 11.5113L25.4331 11.5304V27.8047C25.4329 28.0134 25.5379 28.2091 25.7143 28.3288C25.8907 28.4484 26.1163 28.477 26.3186 28.4054L32.5241 26.2238V1.18118C32.5242 1.02165 32.3923 0.891521 32.2278 0.888672Z"
        fill="#DB3A28" />
    <path fill-rule="evenodd" clip-rule="evenodd"
        d="M42.5821 10.6683C44.0395 10.6393 45.4819 10.9696 46.7842 11.6306C47.9515 12.2226 48.9288 13.1362 49.6028 14.2658C50.2704 15.4183 50.6126 16.7333 50.5923 18.0683C50.5906 18.5907 50.5602 19.1126 50.5011 19.6316H37.1583C37.2615 21.158 37.8254 22.3502 38.8498 23.2083C39.8742 24.0664 41.1177 24.4955 42.5804 24.4955C43.7769 24.4967 44.7767 24.2373 45.5797 23.7173C46.3566 23.2306 46.9515 22.4975 47.2712 21.6328L49.6958 22.9669C49.1731 23.887 48.4477 24.6733 47.5758 25.265C46.2382 26.1984 44.5748 26.6651 42.5856 26.6651C41.1104 26.6911 39.6516 26.3511 38.337 25.675C37.1123 25.0387 36.0928 24.0631 35.3979 22.8626C34.6867 21.6478 34.3311 20.239 34.3311 18.6363C34.3311 17.0335 34.6752 15.6294 35.3635 14.4238C36.0434 13.2307 37.0543 12.2645 38.2716 11.6445C39.5209 10.9937 40.9577 10.6683 42.5821 10.6683ZM38.8808 14.0869C37.8953 14.9172 37.3321 16.0671 37.191 17.5367H47.7289C47.7903 15.7463 46.7563 14.1017 45.1254 13.3955C44.2867 13.0196 43.3775 12.8312 42.4599 12.8431C41.0592 12.8419 39.8662 13.2565 38.8808 14.0869Z"
        fill="currentColor" />
    <path
        d="M67.418 12.6395C66.1219 11.5457 64.4323 10.9994 62.3492 11.0005C61.2454 10.9883 60.1518 11.2006 59.1431 11.6228C58.2215 12.0021 57.4271 12.6107 56.8455 13.3833V11.2717H54V26.1111H56.8455V17.9027C56.8455 16.3496 57.2885 15.1671 58.1746 14.3551C59.0606 13.5431 60.2548 13.1371 61.7571 13.1371C63.2381 13.1371 64.4064 13.5298 65.2618 14.3151C66.1172 15.1005 66.5443 16.2332 66.5432 17.713V26.1078H69.3586V17.3652C69.3574 15.3074 68.7106 13.7322 67.418 12.6395Z"
        fill="currentColor" />
    <path d="M80.161 23.7948L74.9723 11H72L78.5223 26.1111H81.7398L88.2621 11H85.3189L80.161 23.7948Z"
        fill="currentColor" />
    <rect x="92" y="12" width="2.71034" height="15.1111" fill="currentColor" />
    <path fill-rule="evenodd" clip-rule="evenodd"
        d="M103.214 11.976C105.979 10.6747 109.186 10.6747 111.951 11.976C113.221 12.5989 114.289 13.5636 115.033 14.7601C115.786 15.9665 116.163 17.3704 116.163 18.9717C116.239 21.9513 114.556 24.7009 111.858 26.0091C110.491 26.6794 108.983 27.0187 107.458 26.9991C105.958 27.0198 104.476 26.6801 103.137 26.0091C101.876 25.3776 100.824 24.4021 100.102 23.1973C99.3685 21.9816 99.0015 20.573 99.0015 18.9717C98.9723 17.4947 99.3642 16.0396 100.132 14.774C100.872 13.571 101.941 12.6009 103.214 11.976ZM110.309 24.0813C111.197 23.6487 111.944 22.9748 112.462 22.1379C113.004 21.2706 113.275 20.2153 113.275 18.9717C113.275 17.7282 113.007 16.6728 112.47 15.8056C111.972 14.9732 111.243 14.3009 110.37 13.8691C108.583 13.0215 106.505 13.0215 104.717 13.8691C103.853 14.3003 103.136 14.9759 102.657 15.8108C102.141 16.678 101.882 17.7334 101.882 18.977C101.882 20.2402 102.135 21.3048 102.642 22.1709C103.111 22.9974 103.817 23.6671 104.67 24.0952C105.535 24.5246 106.491 24.7431 107.458 24.7326C108.446 24.7379 109.422 24.515 110.309 24.0813Z"
        fill="currentColor" />
    <path
        d="M129.826 20.2489C129.3 19.6675 128.652 19.2179 127.932 18.9348C126.995 18.5797 126.038 18.2829 125.067 18.0459C124.134 17.8017 123.403 17.5801 122.877 17.381C122.393 17.2091 121.947 16.9401 121.566 16.5894C121.221 16.2698 121.03 15.8102 121.043 15.3325C121.043 14.6936 121.331 14.1728 121.908 13.7701C122.484 13.3673 123.26 13.1694 124.235 13.1763C125.288 13.1763 126.131 13.4217 126.762 13.9124C127.372 14.3693 127.75 15.0846 127.792 15.8602H130.496C130.416 14.3557 129.819 13.1694 128.707 12.3014C127.595 11.4334 126.134 10.9999 124.326 11.0011C123.253 10.9834 122.188 11.1821 121.19 11.5861C120.363 11.9051 119.632 12.4442 119.073 13.1486C118.591 13.7648 118.328 14.5323 118.327 15.3238C118.327 16.3226 118.6 17.1281 119.148 17.7404C119.692 18.3524 120.365 18.8275 121.116 19.1292C122.084 19.5041 123.075 19.8109 124.083 20.0476C125.417 20.3681 126.401 20.6934 127.037 21.0232C127.673 21.3531 127.991 21.8565 127.991 22.5336C127.991 23.1933 127.693 23.7395 127.096 24.1724C126.499 24.6052 125.684 24.8222 124.651 24.8234C123.537 24.8234 122.638 24.578 121.955 24.0873C121.272 23.5966 120.889 22.9658 120.806 22.195H118C118.049 23.1121 118.384 23.9886 118.954 24.6949C119.585 25.4606 120.398 26.045 121.313 26.391C122.389 26.8109 123.532 27.0171 124.683 26.9986C125.749 27.0184 126.808 26.8214 127.8 26.4188C128.628 26.0919 129.355 25.5407 129.903 24.8234C130.393 24.1673 130.655 23.3611 130.648 22.5336C130.626 21.6007 130.352 20.8392 129.826 20.2489Z"
        fill="currentColor" />
    <path
        d="M93.1598 10.8763L93.9285 10.4735C93.9477 10.4631 93.9586 10.4487 93.9586 10.4335C93.9586 10.4184 93.9477 10.4039 93.9285 10.3935L93.1968 10.0129C93.1723 9.99979 93.1365 9.99634 93.1058 10.0041C93.0751 10.0118 93.0553 10.0293 93.0556 10.0485V10.8513C93.0526 10.8662 93.0671 10.8805 93.0913 10.8863C93.1154 10.8921 93.1434 10.888 93.1598 10.8763Z"
        fill="currentColor" />
    <path
        d="M98.3151 5.56328L91.3546 7.69742C91.302 7.71267 91.263 7.74847 91.2515 7.79208C91.24 7.8357 91.2577 7.88094 91.2982 7.91171L92.219 8.6226C92.2689 8.66301 92.3052 8.71281 92.3245 8.76739L92.8049 10.0705C92.8103 10.0837 92.8268 10.0921 92.8442 10.0903C92.8616 10.0885 92.8749 10.0771 92.8759 10.0632V9.00049C92.8763 8.87046 92.9556 8.74858 93.0888 8.67328L97.4726 6.18731C97.481 6.18431 97.491 6.18633 97.4966 6.19218C97.5023 6.19804 97.5021 6.20621 97.4962 6.21192L93.3709 9.09316C93.326 9.12502 93.3004 9.17057 93.3004 9.2184C93.3004 9.26622 93.326 9.31177 93.3709 9.34364L95.4417 10.8494C95.4886 10.8828 95.5528 10.8962 95.6142 10.8853C95.6756 10.8743 95.7266 10.8405 95.7511 10.7944L98.4643 5.68635C98.4851 5.65199 98.4768 5.61099 98.4435 5.58355C98.4102 5.55612 98.359 5.54803 98.3151 5.56328Z"
        fill="currentColor" />
</svg>