<svg width="129" height="38" viewBox="0 0 129 38" fill="none" xmlns="http://www.w3.org/2000/svg">
<path fill-rule="evenodd" clip-rule="evenodd" d="M24.6011 17.509C24.7106 17.509 24.8161 17.5388 24.9084 17.5921C24.9074 17.6081 24.9061 17.6237 24.9061 17.6401V24.6712V27.6193V31.4103V31.9129V32.3172V34.2902C24.9061 34.7001 25.3039 34.9925 25.6952 34.87L26.2677 34.6907C27.7824 34.0923 29.5895 33.4471 31.7346 32.7742C31.7726 32.6943 31.7947 32.6062 31.7947 32.5135V31.9129V31.4103V17.6401C31.7947 17.6122 31.7929 17.5846 31.7899 17.5576V17.509L31.7947 7.29761C31.7947 6.95655 31.5183 6.68015 31.1774 6.68015H28.0181C27.7531 6.68015 27.5181 6.84979 27.4337 7.10079C26.4647 9.98452 24.5555 12.1568 21.6213 12.6821C21.3813 12.7249 21.1346 12.7569 20.8809 12.7773C20.5608 12.8031 20.3141 13.0707 20.3141 13.3919V16.8915C20.3141 17.2326 20.5907 17.509 20.9315 17.509H24.6011Z" fill="#CC4236"/>
<path fill-rule="evenodd" clip-rule="evenodd" d="M25.1753 5.35095H10.06H9.49176H1.35536C0.606802 5.35095 0 5.90073 0 6.57894V11.0021C0 11.2428 0.215472 11.438 0.481214 11.438H9.58662V14.8436C9.58662 14.8569 9.58395 14.8685 9.58289 14.8809V34.9297C9.58289 35.1137 9.7035 35.2756 9.87936 35.3299C12.1375 36.0298 14.1771 36.8743 15.7927 37.6244C16.0705 37.7534 16.3876 37.5505 16.3876 37.2441V12.396C16.3876 12.3459 16.3781 12.2967 16.3675 12.2478C16.3087 11.9767 16.4146 11.6611 16.6862 11.5529C16.7483 11.5282 16.819 11.5144 16.8984 11.5144H19.5049C19.5145 11.5133 19.5214 11.5126 19.5214 11.5126C25.1938 10.9593 25.7758 6.57788 25.8235 6.0821C25.8248 6.05457 25.826 6.02774 25.8273 6.00039V5.87924C25.8273 5.76768 25.7887 5.65755 25.712 5.57921C25.574 5.43817 25.3846 5.35095 25.1753 5.35095Z" fill="#CC4236"/>
<path fill-rule="evenodd" clip-rule="evenodd" d="M102.94 19.1867L102.127 23.1183C102.127 23.5118 102.446 23.6379 102.839 23.6379H103.74C104.134 23.6379 104.452 23.5118 104.452 23.1183L103.639 19.1867H102.94Z" fill="white"/>
<path fill-rule="evenodd" clip-rule="evenodd" d="M103.29 20.7747C102.648 20.7747 102.127 20.2539 102.127 19.6119C102.127 18.9697 102.648 18.4493 103.29 18.4493C103.932 18.4493 104.452 18.9697 104.452 19.6119C104.452 20.2539 103.932 20.7747 103.29 20.7747Z" fill="white"/>
<path fill-rule="evenodd" clip-rule="evenodd" d="M109.308 6.38474C109.308 2.86419 106.474 0 102.99 0C99.5068 0 96.6728 2.86419 96.6728 6.38474V14.3625H98.6891V6.38474C98.6891 3.97583 100.619 2.01616 102.99 2.01616C105.362 2.01616 107.292 3.97583 107.292 6.38474V9.07307C107.293 9.08942 107.292 9.10558 107.292 9.1221C107.292 9.50437 107.602 9.81435 107.984 9.81435H108.616C108.998 9.81435 109.308 9.50437 109.308 9.1221C109.308 9.10558 109.307 9.08942 109.305 9.07307H109.308V6.38474Z" fill="white"/>
<path fill-rule="evenodd" clip-rule="evenodd" d="M42.5834 25.6227C46.2779 25.6227 49.2334 22.7114 49.2334 19.1534C49.2334 15.5952 46.2779 12.6839 42.6204 12.6839C38.9259 12.6514 36.0074 15.5952 35.9335 19.1534C35.9335 22.7114 38.8891 25.6227 42.5834 25.6227ZM35.9335 14.7218C37.4112 12.6839 39.8866 11.3577 42.6204 11.39C47.0168 11.39 50.7111 14.8189 50.7111 19.1534C50.7111 23.4877 47.0168 26.9166 42.5834 26.9166C39.8496 26.9166 37.4112 25.6227 35.9335 23.6172V32.2863V32.9331H34.4557V32.2863V19.1534V12.0368V11.39H35.9335V12.0368V14.7218Z" fill="white"/>
<path fill-rule="evenodd" clip-rule="evenodd" d="M35.9335 19.1534C35.9335 22.7114 38.8891 25.6227 42.5834 25.6227C46.2779 25.6227 49.2334 22.7114 49.2334 19.1534C49.2334 15.5952 46.2779 12.6839 42.6204 12.6839C38.9259 12.6514 36.0074 15.5952 35.9335 19.1534ZM35.9335 14.7218C37.4112 12.6839 39.8866 11.3577 42.6204 11.39C47.0168 11.39 50.7111 14.8189 50.7111 19.1534C50.7111 23.4877 47.0168 26.9166 42.5834 26.9166C39.8496 26.9166 37.4112 25.6227 35.9335 23.6172V32.2863V32.9331H34.4557V32.2863V19.1534V12.0368V11.39H35.9335V12.0368V14.7218Z" stroke="white"/>
<path fill-rule="evenodd" clip-rule="evenodd" d="M61.7951 25.6227C65.4894 25.6227 68.4449 22.7114 68.4449 19.1534C68.4449 15.5952 65.4894 12.6839 61.7951 12.6839C58.1006 12.6839 55.1451 15.5952 55.1451 19.1534C55.1451 22.7114 58.1006 25.6227 61.7951 25.6227ZM61.7951 11.39C64.5289 11.39 66.9671 12.6839 68.4449 14.6894V12.0368V11.39H69.9226V12.0368V19.1534V26.2698V26.9166H68.4449V26.2698V23.6172C66.9671 25.6227 64.5289 26.9166 61.7951 26.9166C57.3618 26.9166 53.6674 23.4877 53.6674 19.1534C53.6674 14.8189 57.3618 11.39 61.7951 11.39Z" fill="white"/>
<path fill-rule="evenodd" clip-rule="evenodd" d="M55.1451 19.1534C55.1451 22.7114 58.1006 25.6227 61.7951 25.6227C65.4894 25.6227 68.4449 22.7114 68.4449 19.1534C68.4449 15.5952 65.4894 12.6839 61.7951 12.6839C58.1006 12.6839 55.1451 15.5952 55.1451 19.1534ZM53.6674 19.1534C53.6674 14.8189 57.3618 11.39 61.7951 11.39C64.5289 11.39 66.9671 12.6839 68.4449 14.6894V12.0368V11.39H69.9226V12.0368V19.1534V26.2698V26.9166H68.4449V26.2698V23.6172C66.9671 25.6227 64.5289 26.9166 61.7951 26.9166C57.3618 26.9166 53.6674 23.4877 53.6674 19.1534Z" stroke="white"/>
<path fill-rule="evenodd" clip-rule="evenodd" d="M82.4841 25.6227C86.1784 25.6227 89.1339 22.7114 89.1339 19.1534C89.1339 15.5952 86.1784 12.6839 82.4841 12.6839C78.7897 12.6839 75.834 15.5952 75.834 19.1534C75.834 22.7114 78.7897 25.6227 82.4841 25.6227ZM82.4841 11.39C85.2179 11.39 87.6561 12.6839 89.1339 14.6894V12.0368V11.4223H90.6855L90.6486 12.0693L90.6116 26.2698C90.6116 29.0516 87.4716 32.9009 82.5211 32.9331H81.7819V31.6392H82.5211C86.5108 31.6069 89.1339 28.5339 89.1339 26.2698V23.6172C87.6561 25.6227 85.2179 26.9166 82.4841 26.9166C78.0507 26.9166 74.3564 23.4877 74.3564 19.1534C74.3564 14.8189 78.0507 11.39 82.4841 11.39Z" fill="white"/>
<path fill-rule="evenodd" clip-rule="evenodd" d="M75.834 19.1534C75.834 22.7114 78.7897 25.6227 82.4841 25.6227C86.1784 25.6227 89.1339 22.7114 89.1339 19.1534C89.1339 15.5952 86.1784 12.6839 82.4841 12.6839C78.7897 12.6839 75.834 15.5952 75.834 19.1534ZM74.3564 19.1534C74.3564 14.8189 78.0507 11.39 82.4841 11.39C85.2179 11.39 87.6561 12.6839 89.1339 14.6894V12.0368V11.4223H90.6855L90.6486 12.0693L90.6116 26.2698C90.6116 29.0516 87.4716 32.9009 82.5211 32.9331H81.7819V31.6392H82.5211C86.5108 31.6069 89.1339 28.5339 89.1339 26.2698V23.6172C87.6561 25.6227 85.2179 26.9166 82.4841 26.9166C78.0507 26.9166 74.3564 23.4877 74.3564 19.1534Z" stroke="white"/>
<path fill-rule="evenodd" clip-rule="evenodd" d="M103.173 25.6227C106.868 25.6227 109.823 22.7114 109.823 19.1534C109.823 15.5952 106.868 12.6839 103.173 12.6839C99.479 12.6839 96.5233 15.5952 96.5233 19.1534C96.5233 22.7114 99.479 25.6227 103.173 25.6227ZM103.173 11.39C107.607 11.39 111.301 14.8189 111.301 19.1534C111.301 23.4877 107.607 26.9166 103.173 26.9166C98.74 26.9166 95.0457 23.4877 95.0457 19.1534C95.0457 14.8189 98.74 11.39 103.173 11.39Z" fill="white"/>
<path fill-rule="evenodd" clip-rule="evenodd" d="M96.5233 19.1534C96.5233 22.7114 99.479 25.6227 103.173 25.6227C106.868 25.6227 109.823 22.7114 109.823 19.1534C109.823 15.5952 106.868 12.6839 103.173 12.6839C99.479 12.6839 96.5233 15.5952 96.5233 19.1534ZM95.0457 19.1534C95.0457 14.8189 98.74 11.39 103.173 11.39C107.607 11.39 111.301 14.8189 111.301 19.1534C111.301 23.4877 107.607 26.9166 103.173 26.9166C98.74 26.9166 95.0457 23.4877 95.0457 19.1534Z" stroke="white"/>
<path fill-rule="evenodd" clip-rule="evenodd" d="M125.894 15.5627C125.894 13.8807 123.604 12.684 121.128 12.684C118.653 12.684 116.362 13.8807 116.362 15.5627C116.362 18.7328 128.037 18.2153 128 22.744C128 24.9111 125.155 26.9166 121.128 26.9166C117.101 26.9166 114.257 24.9111 114.257 22.744H115.735C115.735 24.4581 118.358 25.6227 121.128 25.6227C123.899 25.6227 126.522 24.4581 126.522 22.744C126.522 19.5414 114.922 20.1239 114.885 15.5627C114.885 13.3632 117.545 11.3901 121.128 11.3901C124.712 11.3901 127.372 13.3632 127.372 15.5627H125.894Z" fill="white"/>
<path fill-rule="evenodd" clip-rule="evenodd" d="M127.372 15.5627H125.894C125.894 13.8807 123.604 12.684 121.128 12.684C118.653 12.684 116.362 13.8807 116.362 15.5627C116.362 18.7328 128.037 18.2153 128 22.744C128 24.9111 125.155 26.9166 121.128 26.9166C117.101 26.9166 114.257 24.9111 114.257 22.744H115.735C115.735 24.4581 118.358 25.6227 121.128 25.6227C123.899 25.6227 126.522 24.4581 126.522 22.744C126.522 19.5414 114.922 20.1239 114.885 15.5627C114.885 13.3632 117.545 11.3901 121.128 11.3901C124.712 11.3901 127.372 13.3632 127.372 15.5627Z" stroke="white"/>
</svg>
